<svg xmlns="http://www.w3.org/2000/svg" width="1384.031" height="241.859" viewBox="0 0 1384.031 241.859">
  <defs>
    <style>
      .cls-1 {
        opacity: 0.07;
      }

      .cls-2 {
        fill: #eaebed;
      }
    </style>
  </defs>
  <g id="feelings-logo" class="cls-1" transform="translate(-250.9 880.862)">
    <path id="Path_9" data-name="Path 9" class="cls-2" d="M1419.751-879.6c-29.757,4.99-47.13,22.086-55.17,54.153-8.594,34.47-8.41,100.359.462,134.644,5.637,21.9,16.542,37.057,31.882,44.358,11.367,5.452,19.776,7.023,36.41,7.023,20.331-.092,34.747-3.327,57.573-13.03,5.452-2.218,10.35-4.343,10.9-4.528.647-.277,1.663,2.125,2.68,6.284.832,3.7,1.756,7.485,2.033,8.317.37,1.479,1.663,1.663,9.611,1.663h9.149v-125.4l-3.419-.647c-8.872-1.386-56.187-.277-73.93,1.848l-4.9.555v19.222h58.219l-.185,35.3-.277,35.3-10.72,3.512c-32.621,10.535-63.3,11.274-80.4,1.941-12.383-6.654-19.868-20.885-23.657-44.82-2.125-13.492-2.4-72.451-.462-87.144,2.957-21.255,7.763-33.915,16.634-43.156,6.192-6.561,13.307-10.165,24.212-12.383,6.839-1.386,11.274-1.479,33.73-.924,14.231.277,29.387.924,33.73,1.386s10.9,1.109,14.6,1.479l6.654.739v-9.334c0-10.535,1.016-9.426-10.165-11.644C1478.155-880.25,1437.032-882.468,1419.751-879.6Z" transform="translate(-84.027)"/>
    <path id="Path_10" data-name="Path 10" class="cls-2" d="M1637.929-879.582c-26.707,4.343-41.585,16.542-47.777,39.275-2.4,8.779-2.4,46.668,0,55.447,5.083,18.667,15.8,28.833,36.41,34.285,6.192,1.663,11.182,2.033,34.47,2.68,25.229.554,27.631.832,32.714,2.772a26.756,26.756,0,0,1,15.063,13.677c2.587,5.268,2.587,5.268,2.587,25.136,0,18.944-.092,20.146-2.218,24.674-2.4,5.36-8.04,11.089-13.677,14.047-11,5.545-27.354,7.023-64.042,5.73-15.525-.554-31.42-1.294-35.3-1.571l-7.208-.647v9.888c0,5.36.277,9.8.739,9.8.37,0,3.142.462,6.192.924,10.72,1.756,36.226,3.789,54.523,4.343,37.057,1.109,57.665-4.066,71.527-17.928,6.839-6.931,10.258-13.03,12.753-23.1,2.31-9.334,2.31-44.45,0-52.952-5.175-19.222-17.1-31.513-35.3-36.6-4.251-1.2-11.829-1.663-32.806-2.218-24.212-.555-27.908-.924-33.361-2.588-15.525-5.083-20.146-12.753-20.978-34.47-1.017-30.588,6.469-42.694,29.572-47.407,11-2.31,41.123-1.941,76.332.924l7.578.555v-19.406l-6.192-1.017C1691.99-879.859,1652.161-881.985,1637.929-879.582Z" transform="translate(-101.486 -0.021)"/>
    <path id="Path_11" data-name="Path 11" class="cls-2" d="M285.462-877.607c-12.476,2.68-23.842,10.9-28.833,20.608-5.267,10.443-5.083,5.637-5.452,115.423L250.9-640.57h25.968V-741.946l9.888-.555c5.36-.37,17.928-.647,27.908-.647s29.664-.277,43.8-.647l25.6-.554V-763.2l-25.136-.554c-13.769-.37-33.453-.647-43.711-.647s-23.1-.277-28.555-.647l-9.888-.554.277-35.763.277-35.671,2.772-5.452a23.689,23.689,0,0,1,16.172-12.383c3.05-.647,21.809-1.016,53.137-1.016h48.516v-20.053l-12.2-.647c-13.954-.739-76.147-2.4-87.145-2.31A78.863,78.863,0,0,0,285.462-877.607Z" transform="translate(0 -0.149)"/>
    <path id="Path_12" data-name="Path 12" class="cls-2" d="M481.285-877.607c-13.4,2.957-24.027,10.535-29.017,20.793-5.175,10.627-5.267,10.9-5.267,97.957,0,49.81.37,82.154.924,85.943,2.68,16.911,13.862,28,31.975,31.882,9.7,2.033,68.015,1.479,105.072-1.017l8.964-.647v-20.053H546.066c-30.681,0-49.9-.37-53.322-1.017-7.116-1.294-11.736-3.7-14.786-7.67-4.713-6.192-5.083-9.241-5.083-43.988v-32.067l26.522-.554c14.509-.37,35.024-.647,45.467-.647s22.456-.277,26.707-.647l7.578-.554v-19.129H563.624c-8.594,0-32.529-.277-53.137-.647l-37.612-.554v-32.067c0-35.763.37-38.443,5.914-45a27.931,27.931,0,0,1,8.132-5.914l4.9-2.218,51.1-.277,51.011-.277v-19.961l-15.895-.647c-26.615-1.016-73.652-2.4-82.524-2.31A89.172,89.172,0,0,0,481.285-877.607Z" transform="translate(-14.88 -0.148)"/>
    <path id="Path_13" data-name="Path 13" class="cls-2" d="M685.1-877.976c-6.838,1.109-17.466,6.284-22.456,10.9-4.805,4.436-9.241,12.383-11.274,19.961-2.125,8.317-2.125,168.375.092,177.893,1.663,7.3,6.839,16.08,11.552,19.684,10.627,7.855,19.961,9.888,46.3,9.888,20.146,0,62.748-1.294,78.18-2.4l8.5-.554v-20.053l-50.549-.277c-57.85-.37-57.111-.277-63.857-7.578a26.783,26.783,0,0,1-4.9-7.578c-.832-2.5-1.294-13.492-1.479-36.5l-.37-32.9,27.077-.554c14.878-.37,35.579-.647,46.021-.647s22.364-.277,26.615-.647l7.578-.554v-18.852l-52.86-.647c-29.11-.37-53.322-1.016-53.691-1.479-.462-.37-.647-15.156-.462-32.9.462-37.242.647-38.258,8.132-45s5.637-6.561,62.193-6.839l50.549-.37v-19.961l-14.971-.647c-24.582-1.016-74.576-2.4-82.986-2.31A115.86,115.86,0,0,0,685.1-877.976Z" transform="translate(-30.268 -0.148)"/>
    <path id="Path_14" data-name="Path 14" class="cls-2" d="M856-779.01c0,108.954,0,107.475,5.267,117.918,3.05,6.1,9.888,12.568,16.357,15.525,10.073,4.621,15.248,4.99,68.108,4.99h48.886v-23.1H950.26c-45.467,0-50.642-.37-57.48-3.789-3.974-2.033-8.317-7.023-10.073-11.736-1.017-2.772-1.294-21.255-1.571-101.653L880.859-879H856Z" transform="translate(-45.915 -0.141)"/>
    <path id="Path_15" data-name="Path 15" class="cls-2" d="M1043-759.789v119.211h24.951V-879H1043Z" transform="translate(-60.105 -0.141)"/>
    <path id="Path_16" data-name="Path 16" class="cls-2" d="M1130-759.8v119.211h24.951l.185-97.033.277-96.94,62.008,96.755,62.1,96.755,10.72.277,10.72.277V-879.008h-25.875l-.185,96.848-.277,96.848-61.916-96.663-61.916-96.57-10.442-.277L1130-879.1Z" transform="translate(-66.706 -0.134)"/>
  </g>
</svg>
