<svg xmlns="http://www.w3.org/2000/svg" width="24" height="24" viewBox="0 0 24 24">
  <defs>
    <style>
      .cls-1 {
        fill: #98dad9;
        fill-rule: evenodd;
      }
    </style>
  </defs>
  <path id="github-mark-white" class="cls-1" d="M12.01,0A12.149,12.149,0,0,0,0,12.3,12.279,12.279,0,0,0,8.212,23.977a.6.6,0,0,0,.815-.59c0-.285-.02-1.263-.02-2.282-3.341.733-4.037-1.467-4.037-1.467a3.13,3.13,0,0,0-1.332-1.792c-1.093-.754.08-.754.08-.754a2.523,2.523,0,0,1,1.849,1.263,2.52,2.52,0,0,0,3.5,1.018,2.639,2.639,0,0,1,.756-1.65c-2.665-.285-5.468-1.344-5.468-6.071a4.863,4.863,0,0,1,1.233-3.3,4.546,4.546,0,0,1,.119-3.259s1.014-.326,3.3,1.263a11.265,11.265,0,0,1,6,0c2.287-1.589,3.3-1.263,3.3-1.263a4.545,4.545,0,0,1,.119,3.259,4.77,4.77,0,0,1,1.233,3.3c0,4.726-2.8,5.765-5.488,6.071A2.949,2.949,0,0,1,14.992,20c0,1.65-.02,2.974-.02,3.381a.6.6,0,0,0,.815.591A12.28,12.28,0,0,0,24,12.3,12.132,12.132,0,0,0,12.01,0Z"/>
</svg>
