<svg xmlns="http://www.w3.org/2000/svg" width="56.66" height="54.61" viewBox="0 0 56.66 54.61">
  <defs>
    <style>
      .cls-1 {
        fill: #00897b;
      }

      .cls-2 {
        fill: #00a99d;
      }

      .cls-3 {
        fill: #98dad9;
      }

      .cls-4 {
        fill: #5b8291;
      }
    </style>
  </defs>
  <g id="main-logo" transform="translate(-95.67 -8.65)">
    <path id="Path_3" data-name="Path 3" class="cls-1" d="M133.52,10.14l-9.41-1.32-1.88-.08c-.25,1.75-.54,3.49-.89,5.22a110.667,110.667,0,0,0,4.02,27.01,110.921,110.921,0,0,0,8.21-26.05c-.06-1.59-.08-3.19-.06-4.78Z"/>
    <g id="Group_2" data-name="Group 2">
      <path id="Path_4" data-name="Path 4" class="cls-2" d="M122.25,8.65A98.691,98.691,0,0,1,95.67,63.26H111.8a110.841,110.841,0,0,0,22.54-53q-5.73-.81-11.47-1.61h-.62Z"/>
      <path id="Path_5" data-name="Path 5" class="cls-3" d="M139.03,56.03a97.687,97.687,0,0,1,12.64-2.21,111.947,111.947,0,0,1-6.29-11.47q-3.24.5-6.44,1.19v-.02a111.008,111.008,0,0,0-11.79,3.23v.02A110.953,110.953,0,0,0,95.72,63.25h23.26a98.5,98.5,0,0,1,20.04-7.23h.01Z"/>
      <path id="Path_6" data-name="Path 6" class="cls-4" d="M134.46,8.65h-12.2a110.947,110.947,0,0,0,15.56,54.61h14.51A98.676,98.676,0,0,1,134.46,8.65Z"/>
    </g>
  </g>
</svg>
